# xmcd
#
# Track frame offsets: 
#        150
#        31594
#        63540
#        79800
#        101604
#        144051
#        172229
#        225611
#
# Disc length: 3837 seconds
#
# Revision: 11
# Processed by: cddbd v1.5.2PL0 Copyright (c) Steve Scherf et al.
# Submitted via: ExactAudioCopy v0.99pb5
#
DISCID=5e0efb08
DTITLE=Chopin, Frédéric - Chopin - Historic Collection - Arthur Rubins
DTITLE=tein, piano  (Polonaises)
DYEAR=1934
DGENRE=Classical
TTITLE0=Polonaise No.01 Op. 26 no.1 in C sharp minor - allegro appassi
TTITLE0=onato
TTITLE1=Polonaise No.02 Op. 26 no.2 in E flat minor "Siberian Revoluti
TTITLE1=on" - maestoso
TTITLE2=Polonaise No.03 Op. 40 no.1 in A major "Miltary" - allegro con
TTITLE2=brio
TTITLE3=Polonaise No.04 Op. 40 no.2 in C minor - allegro maestoso
TTITLE4=Polonaise No.05 Op. 44 in F sharp minor "Tragic" - allegro mod
TTITLE4=erato
TTITLE5=Polonaise No.06 Op. 53 in A flat major "Heroic" - maestoso
TTITLE6=Polonaise No.07 Op. 61 in A flat major "Polonaise-Fantaisie" -
TTITLE6=allegro maestoso
TTITLE7=Andante spianato et Grande Polonaise brillante Op.22 in E flat
TTITLE7=major - Andante spianato, Allegro molto - Polonaise brillante
EXTD=
EXTT0=
EXTT1=
EXTT2=
EXTT3=
EXTT4=
EXTT5=
EXTT6=
EXTT7=
PLAYORDER=
